<?xml version="1.0" standalone="no"?>
<!DOCTYPE svg PUBLIC "-//W3C//DTD SVG 20010904//EN"
 "http://www.w3.org/TR/2001/REC-SVG-20010904/DTD/svg10.dtd">
<svg version="1.0" xmlns="http://www.w3.org/2000/svg"
 width="299.000000pt" height="277.000000pt" viewBox="0 0 299.000000 277.000000"
 preserveAspectRatio="xMidYMid meet">
<metadata>
Created by potrace 1.10, written by Peter Selinger 2001-2011
</metadata>
<g transform="translate(0.000000,277.000000) scale(0.100000,-0.100000)"
fill="#facd75" stroke="none">
<path d="M768 2005 c-690 -694 -753 -760 -756 -793 -4 -40 15 -62 52 -62 14 0
258 237 756 735 l734 734 653 -651 653 -650 0 -594 0 -594 -1105 -3 -1105 -2
0 632 0 632 -22 15 c-30 21 -54 20 -78 -4 -20 -20 -20 -33 -20 -686 0 -439 4
-672 10 -685 10 -19 35 -19 1213 -19 922 0 1206 3 1215 12 9 9 12 175 12 684
l0 672 -696 689 c-615 609 -699 688 -729 691 -33 3 -60 -24 -787 -753z m820
714 c15 -11 330 -322 700 -692 l672 -671 0 -651 c0 -357 -4 -656 -9 -663 -7
-11 -215 -14 -1189 -14 -650 0 -1186 3 -1192 7 -14 9 -14 1341 0 1350 6 3 19
3 30 0 20 -6 20 -16 20 -631 0 -618 0 -624 21 -645 l20 -20 1099 3 c1040 3
1100 4 1117 21 17 17 18 55 18 614 l0 596 -664 658 c-365 363 -671 659 -679
659 -8 0 -337 -324 -731 -721 -394 -396 -724 -725 -734 -730 -26 -15 -57 -1
-57 24 0 16 217 238 753 775 414 413 759 752 766 752 7 0 25 -9 39 -21z"/>
<path d="M536 2688 c-22 -31 -20 -64 4 -88 41 -41 100 -13 100 47 0 58 -73 86
-104 41z m78 -30 c15 -24 -13 -53 -43 -43 -21 6 -29 43 -14 59 12 12 45 2 57
-16z"/>
<path d="M537 2492 c-15 -16 -17 -48 -17 -233 0 -238 5 -259 59 -259 58 0 61
14 61 261 0 162 -3 228 -12 237 -18 18 -73 14 -91 -6z m78 -46 c4 -19 3 -119
-2 -223 l-8 -188 -25 0 -25 0 -3 210 c-1 115 0 215 2 222 3 7 17 13 30 13 21
0 26 -6 31 -34z"/>
<path d="M878 1672 c-30 -18 -58 -67 -58 -102 0 -36 28 -85 59 -103 42 -25
103 -22 138 6 l28 24 319 -169 c175 -92 323 -168 327 -168 5 0 9 -3 9 -8 0 -4
-150 -157 -334 -341 -303 -302 -335 -332 -354 -322 -50 27 -124 3 -156 -49
-53 -91 36 -211 134 -181 45 13 80 50 89 93 l7 32 706 131 707 131 25 -32 c51
-65 138 -66 191 -3 28 34 34 97 11 137 -28 51 -108 78 -155 53 -14 -8 -50 34
-233 279 l-217 288 21 41 c65 132 -127 245 -209 122 -26 -39 -30 -96 -9 -127
14 -19 9 -27 -89 -124 l-103 -103 -332 175 -332 174 -2 48 c-2 42 -7 53 -39
82 -30 28 -45 34 -79 34 -24 0 -55 -8 -70 -18z m102 -22 c0 -7 9 -9 23 -6 12
3 16 3 10 0 -10 -4 -10 -10 2 -27 19 -28 19 -67 -1 -95 -9 -13 -11 -22 -4 -22
6 0 13 7 16 15 4 8 11 15 17 15 6 0 2 -10 -10 -22 -17 -17 -36 -22 -84 -24
-33 -1 -58 0 -55 3 3 3 -4 17 -14 31 -25 32 -25 72 0 104 10 14 17 27 15 30
-3 2 16 5 40 7 28 1 45 -2 45 -9z m1104 -109 c-6 -7 18 -31 26 -26 4 2 6 -21
6 -53 -1 -31 -6 -59 -11 -60 -6 -2 -18 -8 -28 -14 -34 -18 -105 -17 -119 1
-10 13 -10 14 2 4 23 -21 35 -15 15 7 -10 11 -21 18 -25 15 -6 -4 -4 37 6 82
6 30 50 53 96 50 20 -1 34 -4 32 -6z m-38 -198 l43 4 221 -293 c121 -162 219
-294 217 -294 -4 0 -750 391 -756 397 -3 2 39 48 94 103 86 86 101 98 118 88
11 -6 39 -8 63 -5z m74 -412 c336 -178 375 -201 378 -225 2 -14 -1 -26 -7 -26
-10 0 -1332 -243 -1392 -255 -19 -5 -28 -1 -33 11 -5 14 69 94 331 356 186
186 340 338 343 338 3 -1 174 -90 380 -199z m440 -166 c-7 -9 -15 -13 -19 -10
-3 3 1 10 9 15 21 14 24 12 10 -5z m107 8 c-4 -3 3 -17 15 -30 16 -17 22 -36
22 -71 1 -26 -4 -47 -9 -47 -6 -1 -20 -6 -33 -13 -29 -17 -107 -10 -107 9 0 8
-6 14 -13 14 -13 0 -32 23 -31 40 0 6 7 -1 15 -15 l15 -25 -6 29 c-13 60 23
102 95 109 19 2 37 5 39 5 2 1 1 -1 -2 -5z m-127 -32 c0 -6 -4 -13 -10 -16 -5
-3 -10 1 -10 9 0 9 5 16 10 16 6 0 10 -4 10 -9z m-1557 -285 c22 -3 35 -1 32
5 -11 17 2 9 21 -13 10 -12 13 -18 5 -13 -11 6 -13 4 -6 -11 9 -20 15 -107 7
-99 -7 7 -33 -16 -27 -25 6 -9 -112 -7 -121 3 -8 8 -16 50 -16 85 0 13 9 34
21 46 12 12 18 25 15 29 -3 3 2 4 13 2 10 -2 35 -6 56 -9z m85 -61 c-3 -3 -9
2 -12 12 -6 14 -5 15 5 6 7 -7 10 -15 7 -18z"/>
<path d="M991 1613 c7 -12 15 -20 18 -17 3 2 -3 12 -13 22 -17 16 -18 16 -5
-5z"/>
<path d="M991 1527 c-13 -21 -12 -21 5 -5 10 10 16 20 13 22 -3 3 -11 -5 -18
-17z"/>
<path d="M2072 1414 c-7 -8 -8 -14 -3 -14 10 0 25 19 20 25 -2 1 -10 -3 -17
-11z"/>
<path d="M1010 421 c0 -6 4 -13 10 -16 6 -3 7 1 4 9 -7 18 -14 21 -14 7z"/>
<path d="M900 341 c0 -10 19 -25 25 -20 1 2 -3 10 -11 17 -8 7 -14 8 -14 3z"/>
</g>
</svg>
